# xmcd
#
# Track frame offsets: 
#        150
#        13636
#        26999
#        40540
#        54903
#        67499
#        79817
#        91237
#        103585
#        115639
#        128148
#        138628
#        150224
#        163160
#        173866
#        184210
#        193428
#        204269
#        226760
#        238336
#        250062
#        261285
#        272951
#
# Disc length: 3986 seconds
#
# Revision: 0
# Processed by: cddbd v1.5.2PL0 Copyright (c) Steve Scherf et al.
# Submitted via: ExactAudioCopy v0.99pb4
#
DISCID=440f9017
DTITLE=Don Gardner and Dee Dee Ford - Absolutely The Best!
DYEAR=1963
DGENRE=Soul
TTITLE0=I Need Your Loving
TTITLE1=Tell Me
TTITLE2=Don't You Worry
TTITLE3=I'm Coming Home To Stay
TTITLE4=Lead Me On
TTITLE5=T.C.B. (Taking Care Of Business)
TTITLE6=Now It's Too Late
TTITLE7=Nobody But You
TTITLE8=You Said
TTITLE9=I Need You
TTITLE10=What A Thrill
TTITLE11=Honey Sweet
TTITLE12=Let's Go To The Party
TTITLE13=The Quicker The Better
TTITLE14=I Got A Notion
TTITLE15=Can't Get You Out Of My Mind
TTITLE16=This Lonely Place
TTITLE17=I Got A Man
TTITLE18=Forever In Your Lover's Arms
TTITLE19=Didn't Do Me No Good
TTITLE20=Bad Luck
TTITLE21=Does He Or Doesn't He?
TTITLE22=I Need Your Loving
EXTD=
EXTT0=
EXTT1=
EXTT2=
EXTT3=
EXTT4=
EXTT5=
EXTT6=
EXTT7=
EXTT8=
EXTT9=
EXTT10=
EXTT11=
EXTT12=
EXTT13=
EXTT14=
EXTT15=
EXTT16=
EXTT17=
EXTT18=
EXTT19=
EXTT20=
EXTT21=
EXTT22=
PLAYORDER=
